<!--?xml version="1.0" encoding="utf-8"?-->
<!-- Generator: Adobe Illustrator 16.0.0, SVG Export Plug-In . SVG Version: 6.00 Build 0)  -->

<svg version="1.1" id="Layer_1" xmlns="http://www.w3.org/2000/svg" xmlns:xlink="http://www.w3.org/1999/xlink" x="0px" y="0px" width="192.667px" height="58.66px" viewBox="-1.096 0 192.667 58.66" enable-background="new -1.096 0 192.667 58.66" xml:space="preserve" class="">
<path fill="none" stroke="#E6007E" stroke-miterlimit="10" d="M0.284,28.44V1.039h13.421c2.356,0,4.408,0.874,6.1,2.597
	c1.696,1.731,2.558,3.85,2.558,6.294c0,2.418-0.858,4.533-2.551,6.285c-1.692,1.699-3.747,2.562-6.105,2.562H3.355v9.664
	L0.284,28.44L0.284,28.44z M3.355,15.555h10.349c1.513,0,2.831-0.562,3.917-1.67c1.08-1.1,1.627-2.431,1.627-3.955
	c0-1.552-0.548-2.897-1.628-4c-1.089-1.107-2.406-1.669-3.917-1.669H3.355V15.555z" class="aJitmaYx_0"></path>
<path fill="none" stroke="#E6007E" stroke-miterlimit="10" d="M47.762,28.44l-2.381-4.853H31.258l-2.422,4.853h-3.467L38.297,2.092
	L51.224,28.44H47.762z M32.792,20.408h11.009L38.297,9.192L32.792,20.408z" class="aJitmaYx_1"></path>
<path fill="none" stroke="#E6007E" stroke-miterlimit="10" d="M70.77,28.44c-2.984,0-5.601-1.095-7.772-3.256
	c-2.138-2.231-3.224-4.93-3.224-8.017V1.039h3.072v16.128c0,2.249,0.748,4.104,2.285,5.672c1.573,1.602,3.418,2.381,5.64,2.381
	c2.228,0,4.057-0.777,5.593-2.374c1.598-1.599,2.377-3.458,2.377-5.679V1.039h3.112v16.128c0,3.11-1.092,5.801-3.247,7.998
	C76.42,27.337,73.783,28.44,70.77,28.44z" class="aJitmaYx_2"></path>
<path fill="none" stroke="#E6007E" stroke-miterlimit="10" d="M93.701,28.44L93.701,1.039L96.772,1.039L96.772,25.22L
	111.018,25.22L111.018,28.44Z" class="aJitmaYx_3"></path>
<path fill="none" stroke="#E6007E" stroke-miterlimit="10" width="3.072" height="27.401" d="M122.556 1.039 L125.628 1.039 L125.628 28.44 L122.556 28.44 Z" class="aJitmaYx_4"></path>
<path fill="none" stroke="#E6007E" stroke-miterlimit="10" d="M139.22,28.398L139.22,2.05L158.186,19.453L158.186,0.997L
	161.301,0.997L161.301,27.39L142.293,9.987L142.293,28.398Z" class="aJitmaYx_5"></path>
<path fill="none" stroke="#E6007E" stroke-miterlimit="10" d="M172.875,28.44L172.875,1.039L190.19,1.039L190.19,4.26L
	175.945,4.26L175.945,13.171L188.354,13.171L188.354,16.351L175.945,16.351L175.945,25.22L190.19,25.22L190.19,28.44Z" class="aJitmaYx_6"></path>
<g>
	<path fill="none" stroke="#E6007E" stroke-miterlimit="10" d="M39.056,39.291v11.127c0,2.113-0.71,3.865-2.172,5.354
		c-1.477,1.47-3.188,2.187-5.224,2.187c-2.017,0-3.712-0.712-5.183-2.177c-1.443-1.506-2.151-3.264-2.151-5.362V39.291" class="aJitmaYx_7"></path>
	<path fill="none" stroke="#E6007E" stroke-miterlimit="10" d="M54.729,39.458L54.729,58.333" class="aJitmaYx_8"></path>
	<path fill="none" stroke="#E6007E" stroke-miterlimit="10" d="M47.381,39.76L62.143,39.76" class="aJitmaYx_9"></path>
	<path fill="none" stroke="#E6007E" stroke-miterlimit="10" d="M70.291,58.322L70.291,39.271" class="aJitmaYx_10"></path>
	<path fill="none" stroke="#E6007E" stroke-miterlimit="10" d="M85.013,48.911L70.294,48.911" class="aJitmaYx_11"></path>
	<path fill="none" stroke="#E6007E" stroke-miterlimit="10" d="M85.019,39.271L85.019,58.322" class="aJitmaYx_12"></path>
	<path fill="none" stroke="#E6007E" stroke-miterlimit="10" d="M93.61,39.292l6.855,18.167l5.688-10.512l5.781,10.512l6.828-18.167" class="aJitmaYx_13"></path>
	<path fill="none" stroke="#E6007E" stroke-miterlimit="10" d="M138.778,54.064h-14 M122.692,58.244l9.057-18.079l9.057,18.079" class="aJitmaYx_14"></path>
	<path fill="none" stroke="#E6007E" stroke-miterlimit="10" d="M148.3,39.312L148.3,58.354" class="aJitmaYx_15"></path>
	<path fill="none" stroke="#E6007E" stroke-miterlimit="10" d="M190.466,57.854L179.532,57.854L179.532,39.76L
		190.466,39.76" class="aJitmaYx_16"></path>
	<path fill="none" stroke="#E6007E" stroke-miterlimit="10" d="M179.59,48.784L189.559,48.784" class="aJitmaYx_17"></path>
</g>
<path fill="none" stroke="#E6007E" stroke-miterlimit="10" d="M0.666,58.322L0.666,39.271" class="aJitmaYx_18"></path>
<path fill="none" stroke="#E6007E" stroke-miterlimit="10" d="M15.388,48.911L0.669,48.911" class="aJitmaYx_19"></path>
<path fill="none" stroke="#E6007E" stroke-miterlimit="10" d="M15.394,39.271L15.394,58.322" class="aJitmaYx_20"></path>
<path fill="none" stroke="#E6007E" stroke-miterlimit="10" d="M163.729,39.458L163.729,58.333" class="aJitmaYx_21"></path>
<path fill="none" stroke="#E6007E" stroke-miterlimit="10" d="M156.288,39.79L171.05,39.79" class="aJitmaYx_22"></path>
<path fill="#E6007E" stroke="#E6007E" stroke-miterlimit="10" d="M0.284,28.44V1.039h13.421c2.356,0,4.408,0.874,6.1,2.597
	c1.696,1.731,2.558,3.85,2.558,6.294c0,2.418-0.858,4.533-2.551,6.285c-1.692,1.699-3.747,2.562-6.105,2.562H3.355v9.664
	L0.284,28.44L0.284,28.44z M3.355,15.555h10.349c1.513,0,2.831-0.562,3.917-1.67c1.08-1.1,1.627-2.431,1.627-3.955
	c0-1.552-0.548-2.897-1.628-4c-1.089-1.107-2.406-1.669-3.917-1.669H3.355V15.555z" class="aJitmaYx_23"></path>
<path fill="#E6007E" stroke="#E6007E" stroke-miterlimit="10" d="M47.762,28.44l-2.381-4.853H31.258l-2.422,4.853h-3.467
	L38.297,2.092L51.224,28.44H47.762z M32.792,20.408h11.009L38.297,9.192L32.792,20.408z" class="aJitmaYx_24"></path>
<path fill="#E6007E" stroke="#E6007E" stroke-miterlimit="10" d="M70.77,28.44c-2.984,0-5.601-1.095-7.772-3.256
	c-2.138-2.231-3.224-4.93-3.224-8.017V1.039h3.072v16.128c0,2.249,0.748,4.104,2.285,5.672c1.573,1.602,3.418,2.381,5.64,2.381
	c2.228,0,4.057-0.777,5.593-2.374c1.598-1.599,2.377-3.458,2.377-5.679V1.039h3.112v16.128c0,3.11-1.092,5.801-3.247,7.998
	C76.42,27.337,73.783,28.44,70.77,28.44z" class="aJitmaYx_25"></path>
<path fill="#E6007E" stroke="#E6007E" stroke-miterlimit="10" d="M93.701,28.44L93.701,1.039L96.772,1.039L96.772,25.22L
	111.018,25.22L111.018,28.44Z" class="aJitmaYx_26"></path>
<path fill="#E6007E" stroke="#E6007E" stroke-miterlimit="10" width="3.072" height="27.401" d="M122.556 1.039 L125.628 1.039 L125.628 28.44 L122.556 28.44 Z" class="aJitmaYx_27"></path>
<path fill="#E6007E" stroke="#E6007E" stroke-miterlimit="10" d="M139.22,28.398L139.22,2.05L158.186,19.453L158.186,0.997L
	161.301,0.997L161.301,27.39L142.293,9.987L142.293,28.398Z" class="aJitmaYx_28"></path>
<path fill="#E6007E" stroke="#E6007E" stroke-miterlimit="10" d="M172.875,28.44L172.875,1.039L190.19,1.039L190.19,4.26L
	175.945,4.26L175.945,13.171L188.354,13.171L188.354,16.351L175.945,16.351L175.945,25.22L190.19,25.22L190.19,28.44Z" class="aJitmaYx_29"></path>
<style>.aJitmaYx_0{stroke-dasharray:142 144;stroke-dashoffset:143;animation:aJitmaYx_draw 2000ms ease-in-out 0ms forwards;}.aJitmaYx_1{stroke-dasharray:127 129;stroke-dashoffset:128;animation:aJitmaYx_draw 2000ms ease-in-out 34ms forwards;}.aJitmaYx_2{stroke-dasharray:131 133;stroke-dashoffset:132;animation:aJitmaYx_draw 2000ms ease-in-out 68ms forwards;}.aJitmaYx_3{stroke-dasharray:90 92;stroke-dashoffset:91;animation:aJitmaYx_draw 2000ms ease-in-out 103ms forwards;}.aJitmaYx_4{stroke-dasharray:61 63;stroke-dashoffset:62;animation:aJitmaYx_draw 2000ms ease-in-out 137ms forwards;}.aJitmaYx_5{stroke-dasharray:148 150;stroke-dashoffset:149;animation:aJitmaYx_draw 2000ms ease-in-out 172ms forwards;}.aJitmaYx_6{stroke-dasharray:143 145;stroke-dashoffset:144;animation:aJitmaYx_draw 2000ms ease-in-out 206ms forwards;}.aJitmaYx_7{stroke-dasharray:46 48;stroke-dashoffset:47;animation:aJitmaYx_draw 2000ms ease-in-out 241ms forwards;}.aJitmaYx_8{stroke-dasharray:19 21;stroke-dashoffset:20;animation:aJitmaYx_draw 2000ms ease-in-out 275ms forwards;}.aJitmaYx_9{stroke-dasharray:15 17;stroke-dashoffset:16;animation:aJitmaYx_draw 2000ms ease-in-out 310ms forwards;}.aJitmaYx_10{stroke-dasharray:20 22;stroke-dashoffset:21;animation:aJitmaYx_draw 2000ms ease-in-out 344ms forwards;}.aJitmaYx_11{stroke-dasharray:15 17;stroke-dashoffset:16;animation:aJitmaYx_draw 2000ms ease-in-out 379ms forwards;}.aJitmaYx_12{stroke-dasharray:20 22;stroke-dashoffset:21;animation:aJitmaYx_draw 2000ms ease-in-out 413ms forwards;}.aJitmaYx_13{stroke-dasharray:63 65;stroke-dashoffset:64;animation:aJitmaYx_draw 2000ms ease-in-out 448ms forwards;}.aJitmaYx_14{stroke-dasharray:55 57;stroke-dashoffset:56;animation:aJitmaYx_draw 2000ms ease-in-out 482ms forwards;}.aJitmaYx_15{stroke-dasharray:20 22;stroke-dashoffset:21;animation:aJitmaYx_draw 2000ms ease-in-out 517ms forwards;}.aJitmaYx_16{stroke-dasharray:40 42;stroke-dashoffset:41;animation:aJitmaYx_draw 2000ms ease-in-out 551ms forwards;}.aJitmaYx_17{stroke-dasharray:10 12;stroke-dashoffset:11;animation:aJitmaYx_draw 2000ms ease-in-out 586ms forwards;}.aJitmaYx_18{stroke-dasharray:20 22;stroke-dashoffset:21;animation:aJitmaYx_draw 2000ms ease-in-out 620ms forwards;}.aJitmaYx_19{stroke-dasharray:15 17;stroke-dashoffset:16;animation:aJitmaYx_draw 2000ms ease-in-out 655ms forwards;}.aJitmaYx_20{stroke-dasharray:20 22;stroke-dashoffset:21;animation:aJitmaYx_draw 2000ms ease-in-out 689ms forwards;}.aJitmaYx_21{stroke-dasharray:19 21;stroke-dashoffset:20;animation:aJitmaYx_draw 2000ms ease-in-out 724ms forwards;}.aJitmaYx_22{stroke-dasharray:15 17;stroke-dashoffset:16;animation:aJitmaYx_draw 2000ms ease-in-out 758ms forwards;}.aJitmaYx_23{stroke-dasharray:142 144;stroke-dashoffset:143;animation:aJitmaYx_draw 2000ms ease-in-out 793ms forwards;}.aJitmaYx_24{stroke-dasharray:127 129;stroke-dashoffset:128;animation:aJitmaYx_draw 2000ms ease-in-out 827ms forwards;}.aJitmaYx_25{stroke-dasharray:131 133;stroke-dashoffset:132;animation:aJitmaYx_draw 2000ms ease-in-out 862ms forwards;}.aJitmaYx_26{stroke-dasharray:90 92;stroke-dashoffset:91;animation:aJitmaYx_draw 2000ms ease-in-out 896ms forwards;}.aJitmaYx_27{stroke-dasharray:61 63;stroke-dashoffset:62;animation:aJitmaYx_draw 2000ms ease-in-out 931ms forwards;}.aJitmaYx_28{stroke-dasharray:148 150;stroke-dashoffset:149;animation:aJitmaYx_draw 2000ms ease-in-out 965ms forwards;}.aJitmaYx_29{stroke-dasharray:143 145;stroke-dashoffset:144;animation:aJitmaYx_draw 2000ms ease-in-out 1000ms forwards;}@keyframes aJitmaYx_draw{100%{stroke-dashoffset:0;}}@keyframes aJitmaYx_fade{0%{stroke-opacity:1;}94.44444444444444%{stroke-opacity:1;}100%{stroke-opacity:0;}}</style></svg>
