<!--?xml version="1.0" encoding="utf-8"?-->
<!-- Generator: Adobe Illustrator 16.0.0, SVG Export Plug-In . SVG Version: 6.00 Build 0)  -->

<svg version="1.1" id="Layer_1" xmlns="http://www.w3.org/2000/svg" xmlns:xlink="http://www.w3.org/1999/xlink" x="0px" y="0px" width="190.474px" height="58.66px" viewBox="0 0 190.474 58.66" enable-background="new 0 0 190.474 58.66" xml:space="preserve" class="">
<path fill="none" stroke="#E6007E" stroke-miterlimit="10" d="M0.284,28.44V1.039h13.421c2.356,0,4.408,0.874,6.099,2.597
	c1.697,1.731,2.558,3.85,2.558,6.294c0,2.418-0.858,4.533-2.551,6.285c-1.692,1.699-3.747,2.562-6.105,2.562H3.355v9.664H0.284z
	 M3.355,15.555h10.349c1.513,0,2.831-0.562,3.917-1.67c1.08-1.1,1.627-2.431,1.627-3.955c0-1.552-0.548-2.897-1.628-4
	c-1.089-1.107-2.406-1.669-3.917-1.669H3.355V15.555z" class="ncDYUnlr_0"></path>
<path fill="none" stroke="#E6007E" stroke-miterlimit="10" d="M47.762,28.44l-2.38-4.853H31.258l-2.422,4.853h-3.467L38.297,2.092
	L51.224,28.44H47.762z M32.792,20.408h11.009L38.297,9.192L32.792,20.408z" class="ncDYUnlr_1"></path>
<path fill="none" stroke="#E6007E" stroke-miterlimit="10" d="M70.77,28.44c-2.984,0-5.6-1.095-7.772-3.256
	c-2.138-2.231-3.224-4.93-3.224-8.017V1.039h3.072v16.128c0,2.249,0.748,4.104,2.286,5.672c1.573,1.602,3.418,2.381,5.639,2.381
	c2.228,0,4.057-0.777,5.593-2.374c1.598-1.599,2.377-3.458,2.377-5.679V1.039h3.112v16.128c0,3.11-1.092,5.801-3.247,7.998
	C76.42,27.337,73.783,28.44,70.77,28.44z" class="ncDYUnlr_2"></path>
<path fill="none" stroke="#E6007E" stroke-miterlimit="10" d="M93.701,28.44L93.701,1.039L96.772,1.039L96.772,25.22L
	111.018,25.22L111.018,28.44Z" class="ncDYUnlr_3"></path>
<path fill="none" stroke="#E6007E" stroke-miterlimit="10" width="3.073" height="27.401" d="M122.556 1.039 L125.62899999999999 1.039 L125.62899999999999 28.44 L122.556 28.44 Z" class="ncDYUnlr_4"></path>
<path fill="none" stroke="#E6007E" stroke-miterlimit="10" d="M139.22,28.398L139.22,2.05L158.186,19.453L158.186,0.997L
	161.301,0.997L161.301,27.39L142.293,9.987L142.293,28.398Z" class="ncDYUnlr_5"></path>
<path fill="none" stroke="#E6007E" stroke-miterlimit="10" d="M172.875,28.44L172.875,1.039L190.19,1.039L190.19,4.26L
	175.945,4.26L175.945,13.171L188.354,13.171L188.354,16.351L175.945,16.351L175.945,25.22L190.19,25.22L190.19,28.44Z" class="ncDYUnlr_6"></path>
<g>
	<path fill="none" stroke="#E6007E" stroke-miterlimit="10" d="M39.056,39.291v11.127c0,2.114-0.71,3.865-2.171,5.353
		c-1.477,1.47-3.188,2.187-5.224,2.187c-2.017,0-3.712-0.712-5.183-2.176c-1.443-1.506-2.151-3.265-2.151-5.363V39.291" class="ncDYUnlr_7"></path>
	<path fill="none" stroke="#E6007E" stroke-miterlimit="10" d="M54.729,39.458L54.729,58.333" class="ncDYUnlr_8"></path>
	<path fill="none" stroke="#E6007E" stroke-miterlimit="10" d="M47.381,39.76L62.143,39.76" class="ncDYUnlr_9"></path>
	<path fill="none" stroke="#E6007E" stroke-miterlimit="10" d="M70.291,58.323L70.291,39.271" class="ncDYUnlr_10"></path>
	<path fill="none" stroke="#E6007E" stroke-miterlimit="10" d="M85.013,48.911L70.294,48.911" class="ncDYUnlr_11"></path>
	<path fill="none" stroke="#E6007E" stroke-miterlimit="10" d="M85.019,39.271L85.019,58.323" class="ncDYUnlr_12"></path>
	<path fill="none" stroke="#E6007E" stroke-miterlimit="10" d="M93.61,39.292l6.856,18.167l5.688-10.511l5.781,10.511l6.828-18.167" class="ncDYUnlr_13"></path>
	<path fill="none" stroke="#E6007E" stroke-miterlimit="10" d="M138.778,54.064h-14 M122.692,58.244l9.057-18.079l9.056,18.079" class="ncDYUnlr_14"></path>
	<path fill="none" stroke="#E6007E" stroke-miterlimit="10" d="M148.3,39.312L148.3,58.354" class="ncDYUnlr_15"></path>
	<path fill="none" stroke="#E6007E" stroke-miterlimit="10" d="M190.466,57.854L179.532,57.854L179.532,39.76L
		190.466,39.76" class="ncDYUnlr_16"></path>
	<path fill="none" stroke="#E6007E" stroke-miterlimit="10" d="M179.59,48.784L189.559,48.784" class="ncDYUnlr_17"></path>
</g>
<path fill="none" stroke="#E6007E" stroke-miterlimit="10" d="M0.666,58.323L0.666,39.271" class="ncDYUnlr_18"></path>
<path fill="none" stroke="#E6007E" stroke-miterlimit="10" d="M15.388,48.911L0.669,48.911" class="ncDYUnlr_19"></path>
<path fill="none" stroke="#E6007E" stroke-miterlimit="10" d="M15.394,39.271L15.394,58.323" class="ncDYUnlr_20"></path>
<path fill="none" stroke="#E6007E" stroke-miterlimit="10" d="M163.729,39.458L163.729,58.333" class="ncDYUnlr_21"></path>
<path fill="none" stroke="#E6007E" stroke-miterlimit="10" d="M156.288,39.79L171.05,39.79" class="ncDYUnlr_22"></path>
<style>.ncDYUnlr_0{stroke-dasharray:142 144;stroke-dashoffset:143;animation:ncDYUnlr_draw 2000ms ease-in-out 0ms forwards;}.ncDYUnlr_1{stroke-dasharray:127 129;stroke-dashoffset:128;animation:ncDYUnlr_draw 2000ms ease-in-out 45ms forwards;}.ncDYUnlr_2{stroke-dasharray:131 133;stroke-dashoffset:132;animation:ncDYUnlr_draw 2000ms ease-in-out 90ms forwards;}.ncDYUnlr_3{stroke-dasharray:90 92;stroke-dashoffset:91;animation:ncDYUnlr_draw 2000ms ease-in-out 136ms forwards;}.ncDYUnlr_4{stroke-dasharray:61 63;stroke-dashoffset:62;animation:ncDYUnlr_draw 2000ms ease-in-out 181ms forwards;}.ncDYUnlr_5{stroke-dasharray:148 150;stroke-dashoffset:149;animation:ncDYUnlr_draw 2000ms ease-in-out 227ms forwards;}.ncDYUnlr_6{stroke-dasharray:143 145;stroke-dashoffset:144;animation:ncDYUnlr_draw 2000ms ease-in-out 272ms forwards;}.ncDYUnlr_7{stroke-dasharray:46 48;stroke-dashoffset:47;animation:ncDYUnlr_draw 2000ms ease-in-out 318ms forwards;}.ncDYUnlr_8{stroke-dasharray:19 21;stroke-dashoffset:20;animation:ncDYUnlr_draw 2000ms ease-in-out 363ms forwards;}.ncDYUnlr_9{stroke-dasharray:15 17;stroke-dashoffset:16;animation:ncDYUnlr_draw 2000ms ease-in-out 409ms forwards;}.ncDYUnlr_10{stroke-dasharray:20 22;stroke-dashoffset:21;animation:ncDYUnlr_draw 2000ms ease-in-out 454ms forwards;}.ncDYUnlr_11{stroke-dasharray:15 17;stroke-dashoffset:16;animation:ncDYUnlr_draw 2000ms ease-in-out 500ms forwards;}.ncDYUnlr_12{stroke-dasharray:20 22;stroke-dashoffset:21;animation:ncDYUnlr_draw 2000ms ease-in-out 545ms forwards;}.ncDYUnlr_13{stroke-dasharray:63 65;stroke-dashoffset:64;animation:ncDYUnlr_draw 2000ms ease-in-out 590ms forwards;}.ncDYUnlr_14{stroke-dasharray:55 57;stroke-dashoffset:56;animation:ncDYUnlr_draw 2000ms ease-in-out 636ms forwards;}.ncDYUnlr_15{stroke-dasharray:20 22;stroke-dashoffset:21;animation:ncDYUnlr_draw 2000ms ease-in-out 681ms forwards;}.ncDYUnlr_16{stroke-dasharray:40 42;stroke-dashoffset:41;animation:ncDYUnlr_draw 2000ms ease-in-out 727ms forwards;}.ncDYUnlr_17{stroke-dasharray:10 12;stroke-dashoffset:11;animation:ncDYUnlr_draw 2000ms ease-in-out 772ms forwards;}.ncDYUnlr_18{stroke-dasharray:20 22;stroke-dashoffset:21;animation:ncDYUnlr_draw 2000ms ease-in-out 818ms forwards;}.ncDYUnlr_19{stroke-dasharray:15 17;stroke-dashoffset:16;animation:ncDYUnlr_draw 2000ms ease-in-out 863ms forwards;}.ncDYUnlr_20{stroke-dasharray:20 22;stroke-dashoffset:21;animation:ncDYUnlr_draw 2000ms ease-in-out 909ms forwards;}.ncDYUnlr_21{stroke-dasharray:19 21;stroke-dashoffset:20;animation:ncDYUnlr_draw 2000ms ease-in-out 954ms forwards;}.ncDYUnlr_22{stroke-dasharray:15 17;stroke-dashoffset:16;animation:ncDYUnlr_draw 2000ms ease-in-out 1000ms forwards;}@keyframes ncDYUnlr_draw{100%{stroke-dashoffset:0;}}@keyframes ncDYUnlr_fade{0%{stroke-opacity:1;}94.44444444444444%{stroke-opacity:1;}100%{stroke-opacity:0;}}</style></svg>
