<?xml version="1.0" encoding="UTF-8"?>
<svg width="452px" height="95px" viewBox="0 0 452 95" version="1.1" xmlns="http://www.w3.org/2000/svg" xmlns:xlink="http://www.w3.org/1999/xlink">
    <!-- Generator: Sketch 64 (93537) - https://sketch.com -->
    <title>twc@2x</title>
    <desc>Created with Sketch.</desc>
    <g id="Page-1" stroke="none" stroke-width="1" fill="none" fill-rule="evenodd">
        <g id="twc">
            <polygon id="Path" stroke="#FFFFFF" stroke-width="1.5" points="0.8 0.8 450.8 0.8 450.8 94.1 0.8 94.1"></polygon>
            <path d="M51.1,27.5 L43.9,27.5 L43.9,45.7 L40.9,45.7 L40.9,27.5 L33.7,27.5 L33.7,24.8 L51,24.8 L51.1,27.5 Z M75.5,45.8 L72.5,45.8 L72.5,36.7 L60.9,36.7 L60.9,45.8 L57.9,45.8 L57.9,24.9 L60.9,24.9 L60.9,34 L72.6,34 L72.6,24.9 L75.6,24.9 L75.6,45.8 L75.5,45.8 Z M96,27.5 L87.2,27.5 L87.2,33.8 L95.7,33.8 L95.7,36.5 L87.2,36.5 L87.2,43 L96.3,43 L96.3,45.7 L84.2,45.7 L84.2,24.9 L96,24.9 L96,27.5 Z M137,46 L136.4,46 L129.6,28.9 L122.7,46 L122.1,46 L113.7,24.9 L116.7,24.9 L122.4,39.3 L128.2,24.9 L131,24.9 L136.8,39.3 L142.5,24.9 L145.5,24.9 L137,46 Z M169.4,45.8 L166.4,45.8 L166.4,36.7 L154.7,36.7 L154.7,45.8 L151.7,45.8 L151.7,24.9 L154.7,24.9 L154.7,34 L166.4,34 L166.4,24.9 L169.4,24.9 L169.4,45.8 Z M181,45.8 L178,45.8 L178,24.9 L181,24.9 L181,45.8 Z M205.2,27.5 L198,27.5 L198,45.7 L195,45.7 L195,27.5 L187.8,27.5 L187.8,24.8 L205.2,24.8 L205.2,27.5 L205.2,27.5 Z M223.9,27.5 L215.1,27.5 L215.1,33.8 L223.6,33.8 L223.6,36.5 L215.1,36.5 L215.1,43 L224.2,43 L224.2,45.7 L212.1,45.7 L212.1,24.9 L223.9,24.9 L223.9,27.5 Z M261.6,29.5 C259,28 256.8,27.3 254.4,27.3 C249.6,27.3 246.1,30.7 246.1,35.3 C246.1,40 249.5,43.2 254.5,43.2 C256.9,43.2 259.4,42.4 261.8,40.8 L261.8,44.1 C259.7,45.2 257.5,45.9 254.2,45.9 C246.4,45.9 242.9,39.9 242.9,35.5 C242.9,29.1 247.7,24.5 254.3,24.5 C256.4,24.5 258.6,25 261.5,26.2 L261.5,29.5 L261.6,29.5 Z M271.6,35.4 C271.6,30.8 275.1,27.4 279.7,27.4 C284.4,27.4 287.8,30.8 287.8,35.4 C287.8,40 284.3,43.4 279.7,43.4 C275.1,43.2 271.6,39.9 271.6,35.4 Z M268.5,35.4 C268.5,41.1 272.8,46.1 279.6,46.1 C286.7,46.1 290.9,41 290.9,35.4 C290.9,29.6 286.6,24.7 279.7,24.7 C272.9,24.6 268.5,29.5 268.5,35.4 L268.5,35.4 Z M317.9,45.8 L314.9,45.8 L314.9,29.5 L314.8,29.5 L308.4,37.6 L307.9,37.6 L301.5,29.5 L301.4,29.5 L301.4,45.8 L298.4,45.8 L298.4,24.9 L301.2,24.9 L308.1,33.5 L315,24.9 L317.8,24.9 L317.9,45.8 Z M330.4,27.5 L333.9,27.5 C336.6,27.5 337.5,29.2 337.5,30.7 C337.5,32.8 336.1,34 333.8,34 L330.4,34 L330.4,27.5 L330.4,27.5 Z M327.4,24.9 L327.4,45.8 L330.4,45.8 L330.4,36.8 L333.5,36.8 C338.3,36.8 340.5,34.2 340.5,30.9 C340.5,27.6 338.4,24.9 333.9,24.9 L327.4,24.9 Z M354.9,29.4 L358.3,37 L351.8,37 L354.9,29.4 L354.9,29.4 Z M355.9,24.8 L353.8,24.8 L344.8,45.8 L347.9,45.8 L350.5,39.7 L359.4,39.7 L362.2,45.8 L365.3,45.8 L355.9,24.8 L355.9,24.8 Z M390.9,45.8 L388.3,45.8 L374.4,29.7 L374.4,45.8 L371.6,45.8 L371.6,24.9 L374,24.9 L388.1,41.1 L388.1,24.9 L390.9,24.9 L390.9,45.8 Z M411.9,24.9 L415.5,24.9 L407.8,34.8 L407.8,45.8 L404.8,45.8 L404.8,34.8 L397.1,25 L400.7,25 L406.3,32.2 L411.9,24.9 L411.9,24.9 Z M184.4,61.8 L182.8,61.8 L182.8,71.5 L188.8,71.5 L188.8,69.7 L184.7,69.7 L184.7,61.8 L184.4,61.8 L184.4,61.8 Z M196.5,66.5 C196.5,69.3 198.7,71.4 201.6,71.4 C205,71.4 206.8,68.9 206.8,66.5 C206.8,63.6 204.6,61.5 201.6,61.5 C198.8,61.6 196.5,63.8 196.5,66.5 Z M198.5,66.5 C198.5,64.7 199.9,63.3 201.7,63.3 C203.6,63.3 204.9,64.6 204.9,66.5 C204.9,68.3 203.5,69.7 201.7,69.7 C199.8,69.8 198.5,68.5 198.5,66.5 Z M221.8,61.8 L220.3,61.8 L220.3,68.3 C219.4,67.3 214.7,61.9 214.7,61.9 L213.4,61.8 L213.1,61.8 L213.1,71.5 L214.9,71.5 L214.9,65 C215.8,66 220.4,71.4 220.4,71.4 L221.7,71.5 L222,71.5 L222,61.8 L221.8,61.8 L221.8,61.8 Z M229.4,61.8 L229.1,61.8 L229.1,71.5 L232.9,71.5 C236.2,71.5 238,69 238,66.7 C238,64.4 236.4,61.9 232.9,61.9 L229.4,61.9 L229.4,61.8 L229.4,61.8 Z M232.6,63.5 C234.7,63.5 236,64.6 236,66.6 C236,67.7 235.3,69.7 232.7,69.7 L230.9,69.7 L230.9,63.6 C231.4,63.5 232.6,63.5 232.6,63.5 L232.6,63.5 Z M244.2,66.5 C244.2,69.3 246.4,71.4 249.3,71.4 C252.7,71.4 254.5,68.9 254.5,66.5 C254.5,63.6 252.3,61.5 249.3,61.5 C246.5,61.6 244.2,63.8 244.2,66.5 Z M246.1,66.5 C246.1,64.7 247.5,63.3 249.3,63.3 C251.2,63.3 252.5,64.6 252.5,66.5 C252.5,68.3 251.1,69.7 249.3,69.7 C247.6,69.8 246.1,68.5 246.1,66.5 Z M269.6,61.8 L268.1,61.8 L268.1,68.3 C267.2,67.3 262.5,61.9 262.5,61.9 L261.2,61.8 L260.9,61.8 L260.9,71.5 L262.7,71.5 L262.7,65 C263.6,66 268.2,71.4 268.2,71.4 L269.5,71.5 L269.8,71.5 L269.8,61.8 L269.6,61.8 Z" id="Shape" fill="#FFFFFF" fill-rule="nonzero"></path>
        </g>
    </g>
</svg>