<svg data-v-7e8efb82="" xmlns="http://www.w3.org/2000/svg" viewBox="0 0 451.5 94.8" svg-inline="" role="presentation" focusable="false" tabindex="-1"><path data-v-7e8efb82="" fill="none" stroke="#fff" stroke-width="1.5" d="M.8.8h450v93.3H.8z"></path><path data-v-7e8efb82="" d="M51.1 27.5h-7.2v18.2h-3V27.5h-7.2v-2.7H51l.1 2.7zm24.4 18.3h-3v-9.1H60.9v9.1h-3V24.9h3V34h11.7v-9.1h3v20.9h-.1zM96 27.5h-8.8v6.3h8.5v2.7h-8.5V43h9.1v2.7H84.2V24.9H96v2.6zM137 46h-.6l-6.8-17.1-6.9 17.1h-.6l-8.4-21.1h3l5.7 14.4 5.8-14.4h2.8l5.8 14.4 5.7-14.4h3L137 46zm32.4-.2h-3v-9.1h-11.7v9.1h-3V24.9h3V34h11.7v-9.1h3v20.9zm11.6 0h-3V24.9h3v20.9zm24.2-18.3H198v18.2h-3V27.5h-7.2v-2.7h17.4v2.7zm18.7 0h-8.8v6.3h8.5v2.7h-8.5V43h9.1v2.7h-12.1V24.9h11.8v2.6zm37.7 2c-2.6-1.5-4.8-2.2-7.2-2.2-4.8 0-8.3 3.4-8.3 8 0 4.7 3.4 7.9 8.4 7.9 2.4 0 4.9-.8 7.3-2.4v3.3c-2.1 1.1-4.3 1.8-7.6 1.8-7.8 0-11.3-6-11.3-10.4 0-6.4 4.8-11 11.4-11 2.1 0 4.3.5 7.2 1.7v3.3h.1zm10 5.9c0-4.6 3.5-8 8.1-8 4.7 0 8.1 3.4 8.1 8s-3.5 8-8.1 8c-4.6-.2-8.1-3.5-8.1-8zm-3.1 0c0 5.7 4.3 10.7 11.1 10.7 7.1 0 11.3-5.1 11.3-10.7 0-5.8-4.3-10.7-11.2-10.7-6.8-.1-11.2 4.8-11.2 10.7zm49.4 10.4h-3V29.5h-.1l-6.4 8.1h-.5l-6.4-8.1h-.1v16.3h-3V24.9h2.8l6.9 8.6 6.9-8.6h2.8l.1 20.9zm12.5-18.3h3.5c2.7 0 3.6 1.7 3.6 3.2 0 2.1-1.4 3.3-3.7 3.3h-3.4v-6.5zm-3-2.6v20.9h3v-9h3.1c4.8 0 7-2.6 7-5.9s-2.1-6-6.6-6h-6.5zm27.5 4.5l3.4 7.6h-6.5l3.1-7.6zm1-4.6h-2.1l-9 21h3.1l2.6-6.1h8.9l2.8 6.1h3.1l-9.4-21zm35 21h-2.6l-13.9-16.1v16.1h-2.8V24.9h2.4l14.1 16.2V24.9h2.8v20.9zm21-20.9h3.6l-7.7 9.9v11h-3v-11l-7.7-9.8h3.6l5.6 7.2 5.6-7.3zM184.4 61.8h-1.6v9.7h6v-1.8h-4.1v-7.9h-.3zm12.1 4.7c0 2.8 2.2 4.9 5.1 4.9 3.4 0 5.2-2.5 5.2-4.9 0-2.9-2.2-5-5.2-5-2.8.1-5.1 2.3-5.1 5zm2 0c0-1.8 1.4-3.2 3.2-3.2 1.9 0 3.2 1.3 3.2 3.2 0 1.8-1.4 3.2-3.2 3.2-1.9.1-3.2-1.2-3.2-3.2zm23.3-4.7h-1.5v6.5c-.9-1-5.6-6.4-5.6-6.4l-1.3-.1h-.3v9.7h1.8V65c.9 1 5.5 6.4 5.5 6.4l1.3.1h.3v-9.7h-.2zm7.6 0h-.3v9.7h3.8c3.3 0 5.1-2.5 5.1-4.8s-1.6-4.8-5.1-4.8h-3.5v-.1zm3.2 1.7c2.1 0 3.4 1.1 3.4 3.1 0 1.1-.7 3.1-3.3 3.1h-1.8v-6.1c.5-.1 1.7-.1 1.7-.1zm11.6 3c0 2.8 2.2 4.9 5.1 4.9 3.4 0 5.2-2.5 5.2-4.9 0-2.9-2.2-5-5.2-5-2.8.1-5.1 2.3-5.1 5zm1.9 0c0-1.8 1.4-3.2 3.2-3.2 1.9 0 3.2 1.3 3.2 3.2 0 1.8-1.4 3.2-3.2 3.2-1.7.1-3.2-1.2-3.2-3.2zm23.5-4.7h-1.5v6.5c-.9-1-5.6-6.4-5.6-6.4l-1.3-.1h-.3v9.7h1.8V65c.9 1 5.5 6.4 5.5 6.4l1.3.1h.3v-9.7h-.2z"></path></svg>